<svg width="12" height="13" viewBox="0 0 12 13" fill="none" xmlns="http://www.w3.org/2000/svg">
<path d="M5.18342 7.55008L3.91466 6.28133C3.80772 6.17439 3.67647 6.12092 3.52091 6.12092C3.36536 6.12092 3.22925 6.17925 3.11258 6.29591C3.00564 6.40286 2.95216 6.53897 2.95216 6.70425C2.95216 6.86953 3.00564 7.00564 3.11258 7.11258L4.77508 8.77508C4.88203 8.88203 5.01814 8.9355 5.18342 8.9355C5.34869 8.9355 5.4848 8.88203 5.59175 8.77508L8.90216 5.46467C9.00911 5.35772 9.06258 5.22647 9.06258 5.07091C9.06258 4.91536 9.00425 4.77925 8.88758 4.66258C8.78064 4.55564 8.64453 4.50216 8.47925 4.50216C8.31397 4.50216 8.17786 4.55564 8.07091 4.66258L5.18342 7.55008ZM6.00008 12.3334C5.19314 12.3334 4.4348 12.1802 3.72508 11.8737C3.01536 11.5677 2.398 11.1522 1.873 10.6272C1.348 10.1022 0.93247 9.4848 0.626415 8.77508C0.31997 8.06536 0.166748 7.30703 0.166748 6.50008C0.166748 5.69314 0.31997 4.9348 0.626415 4.22508C0.93247 3.51536 1.348 2.898 1.873 2.373C2.398 1.848 3.01536 1.43228 3.72508 1.12583C4.4348 0.819776 5.19314 0.666748 6.00008 0.666748C6.80703 0.666748 7.56536 0.819776 8.27508 1.12583C8.9848 1.43228 9.60217 1.848 10.1272 2.373C10.6522 2.898 11.0677 3.51536 11.3737 4.22508C11.6802 4.9348 11.8334 5.69314 11.8334 6.50008C11.8334 7.30703 11.6802 8.06536 11.3737 8.77508C11.0677 9.4848 10.6522 10.1022 10.1272 10.6272C9.60217 11.1522 8.9848 11.5677 8.27508 11.8737C7.56536 12.1802 6.80703 12.3334 6.00008 12.3334Z" fill="#D22F27"/>
</svg>
