<svg width="22" height="21" viewBox="0 0 22 21" fill="none" xmlns="http://www.w3.org/2000/svg">
<g filter="url(#filter0_d_50_17)">
<path d="M11.7128 0.335506C12.8226 0.335506 13.7816 0.539953 14.5896 0.948847C15.3977 1.35774 16.011 1.93214 16.4297 2.67205C16.858 3.40221 17.0722 4.25408 17.0722 5.22764C17.0722 6.00648 16.9359 6.75126 16.6633 7.46195C16.4004 8.17265 16.0159 8.75192 15.5096 9.19976C15.0131 9.64759 14.4241 9.87151 13.7426 9.87151C13.2461 9.87151 12.8567 9.76442 12.5744 9.55024C12.292 9.32632 12.1168 9.01478 12.0486 8.61562C11.7468 9.00504 11.3671 9.31171 10.9096 9.53563C10.452 9.75955 9.97496 9.87151 9.47845 9.87151C8.72881 9.87151 8.1398 9.64759 7.71144 9.19976C7.29281 8.74218 7.08349 8.12397 7.08349 7.34513C7.08349 6.60522 7.23439 5.914 7.5362 5.27145C7.84774 4.6289 8.28097 4.11778 8.8359 3.73809C9.39083 3.34867 10.0139 3.15396 10.7051 3.15396C11.5521 3.15396 12.146 3.44116 12.4867 4.01556L12.6182 3.28539H14.0639L13.3337 7.46195C13.3045 7.6664 13.2899 7.84651 13.2899 8.00228C13.2899 8.2554 13.3386 8.44525 13.436 8.57181C13.5431 8.69837 13.728 8.76165 13.9909 8.76165C14.3608 8.76165 14.6772 8.58155 14.9401 8.22133C15.203 7.85138 15.3977 7.39867 15.5242 6.86321C15.6605 6.32776 15.7287 5.8069 15.7287 5.30065C15.7287 4.06423 15.3685 3.11988 14.648 2.4676C13.9276 1.81531 12.881 1.48917 11.5083 1.48917C10.3595 1.48917 9.32754 1.76177 8.4124 2.30696C7.50699 2.85215 6.79629 3.60179 6.28031 4.55588C5.76432 5.50997 5.50633 6.57115 5.50633 7.73942C5.50633 8.98557 5.87628 9.93479 6.61618 10.5871C7.35609 11.2394 8.4124 11.5655 9.78512 11.5655C10.71 11.5655 11.5181 11.3951 12.2093 11.0544L12.4283 12.1642C11.5424 12.5439 10.5494 12.7338 9.44924 12.7338C8.38806 12.7338 7.45831 12.5342 6.65999 12.135C5.86168 11.7359 5.24347 11.1663 4.80536 10.4264C4.36726 9.69627 4.14821 8.84441 4.14821 7.87085C4.14821 6.47866 4.46949 5.20817 5.11204 4.05937C5.76432 2.91057 6.66486 2.00516 7.81366 1.34314C8.96246 0.671383 10.2622 0.335506 11.7128 0.335506ZM9.98956 8.58641C10.3985 8.58641 10.7684 8.46959 11.0994 8.23593C11.4402 7.99254 11.7079 7.67614 11.9026 7.28671C12.0973 6.88755 12.1947 6.46406 12.1947 6.01622C12.1947 5.54891 12.0632 5.16922 11.8004 4.87716C11.5473 4.57535 11.187 4.42445 10.7197 4.42445C10.3011 4.42445 9.93115 4.55588 9.60988 4.81874C9.29834 5.07187 9.05495 5.40288 8.87971 5.81177C8.7142 6.22067 8.63145 6.64903 8.63145 7.09687C8.63145 7.55444 8.74341 7.91953 8.96733 8.19212C9.19125 8.45498 9.53199 8.58641 9.98956 8.58641Z" fill="#797979"/>
</g>
<defs>
<filter id="filter0_d_50_17" x="0.148193" y="0.335449" width="20.9241" height="20.3984" filterUnits="userSpaceOnUse" color-interpolation-filters="sRGB">
<feFlood flood-opacity="0" result="BackgroundImageFix"/>
<feColorMatrix in="SourceAlpha" type="matrix" values="0 0 0 0 0 0 0 0 0 0 0 0 0 0 0 0 0 0 127 0" result="hardAlpha"/>
<feOffset dy="4"/>
<feGaussianBlur stdDeviation="2"/>
<feComposite in2="hardAlpha" operator="out"/>
<feColorMatrix type="matrix" values="0 0 0 0 0 0 0 0 0 0 0 0 0 0 0 0 0 0 0.25 0"/>
<feBlend mode="normal" in2="BackgroundImageFix" result="effect1_dropShadow_50_17"/>
<feBlend mode="normal" in="SourceGraphic" in2="effect1_dropShadow_50_17" result="shape"/>
</filter>
</defs>
</svg>
