<svg width="46" height="46" viewBox="0 0 46 46" fill="none" xmlns="http://www.w3.org/2000/svg">
<path d="M3.55762 10.95H41.9816V34.5002H3.55762V10.95Z" fill="#5C9E31"/>
<path d="M3.55762 10.95H41.9816V19.0066H3.55762V10.95Z" fill="#E27022"/>
<path d="M3.55762 19.0066H41.9816V26.4435H3.55762V19.0066Z" fill="white"/>
<path d="M22.9529 22.0409L24.009 20.5783L23.2702 22.2243L24.9163 21.4856L23.4537 22.5416L25.2485 22.7251L23.4537 22.9085L24.9163 23.9645L23.2702 23.2258L24.009 24.8718L22.9529 23.4093L22.7695 25.204L22.5861 23.4093L21.53 24.8718L22.2687 23.2258L20.6227 23.9645L22.0853 22.9085L20.2905 22.7251L22.0853 22.5416L20.6227 21.4856L22.2687 22.2243L21.53 20.5783L22.5861 22.0409L22.7695 20.2461L22.9529 22.0409Z" stroke="#1E50A0" stroke-width="0.619742" stroke-linecap="round" stroke-linejoin="round"/>
<path d="M22.7696 25.8236C24.481 25.8236 25.8683 24.4363 25.8683 22.7249C25.8683 21.0136 24.481 19.6262 22.7696 19.6262C21.0582 19.6262 19.6709 21.0136 19.6709 22.7249C19.6709 24.4363 21.0582 25.8236 22.7696 25.8236Z" stroke="#1E50A0" stroke-width="0.619742" stroke-linecap="round" stroke-linejoin="round"/>
</svg>
