<svg width="20" height="20" viewBox="0 0 20 20" fill="none" xmlns="http://www.w3.org/2000/svg">
<path d="M10.0712 10.1621C10.5174 10.1621 10.8995 10.003 11.2176 9.68502C11.5351 9.36753 11.6938 8.98568 11.6938 8.53946C11.6938 8.09325 11.5351 7.71113 11.2176 7.3931C10.8995 7.07561 10.5174 6.91686 10.0712 6.91686C9.62499 6.91686 9.24313 7.07561 8.92565 7.3931C8.60762 7.71113 8.4486 8.09325 8.4486 8.53946C8.4486 8.98568 8.60762 9.36753 8.92565 9.68502C9.24313 10.003 9.62499 10.1621 10.0712 10.1621ZM10.0712 16.1251C11.7208 14.6107 12.9445 13.2347 13.7423 11.9972C14.5401 10.7603 14.939 9.66176 14.939 8.70172C14.939 7.22786 14.469 6.02092 13.529 5.0809C12.5895 4.14141 11.4369 3.67167 10.0712 3.67167C8.70551 3.67167 7.55266 4.14141 6.61263 5.0809C5.67315 6.02092 5.20341 7.22786 5.20341 8.70172C5.20341 9.66176 5.6023 10.7603 6.40007 11.9972C7.19785 13.2347 8.42156 14.6107 10.0712 16.1251ZM10.0712 18.275C7.89422 16.4226 6.26837 14.7018 5.19367 13.1128C4.11843 11.5242 3.58081 10.0539 3.58081 8.70172C3.58081 6.67347 4.23337 5.05764 5.53847 3.85421C6.84304 2.65079 8.35395 2.04907 10.0712 2.04907C11.7884 2.04907 13.2994 2.65079 14.6039 3.85421C15.909 5.05764 16.5616 6.67347 16.5616 8.70172C16.5616 10.0539 16.0242 11.5242 14.9495 13.1128C13.8743 14.7018 12.2482 16.4226 10.0712 18.275Z" fill="#797979"/>
</svg>
