<svg width="21" height="20" viewBox="0 0 21 20" fill="none" xmlns="http://www.w3.org/2000/svg">
<path d="M10.5578 5.13278C10.7815 5.13278 11.0031 5.17684 11.2098 5.26246C11.4165 5.34808 11.6043 5.47358 11.7625 5.63179C11.9207 5.78999 12.0462 5.97781 12.1318 6.18452C12.2174 6.39122 12.2615 6.61277 12.2615 6.8365C12.2615 7.06024 12.2174 7.28179 12.1318 7.48849C12.0462 7.6952 11.9207 7.88301 11.7625 8.04122C11.6043 8.19943 11.4165 8.32492 11.2098 8.41054C11.0031 8.49616 10.7815 8.54023 10.5578 8.54023C10.1059 8.54023 9.67257 8.36073 9.35306 8.04122C9.03354 7.72171 8.85404 7.28836 8.85404 6.8365C8.85404 6.38465 9.03354 5.9513 9.35306 5.63179C9.67257 5.31228 10.1059 5.13278 10.5578 5.13278M10.5578 12.4345C12.9673 12.4345 15.5067 13.619 15.5067 14.1382V15.0306H5.60885V14.1382C5.60885 13.619 8.14822 12.4345 10.5578 12.4345M10.5578 3.59131C8.7648 3.59131 7.31258 5.04353 7.31258 6.8365C7.31258 8.62947 8.7648 10.0817 10.5578 10.0817C12.3507 10.0817 13.803 8.62947 13.803 6.8365C13.803 5.04353 12.3507 3.59131 10.5578 3.59131ZM10.5578 10.893C8.3916 10.893 4.06738 11.9801 4.06738 14.1382V15.7608C4.06738 16.207 4.43247 16.5721 4.87868 16.5721H16.2369C16.6831 16.5721 17.0482 16.207 17.0482 15.7608V14.1382C17.0482 11.9801 12.7239 10.893 10.5578 10.893Z" fill="#797979"/>
</svg>
