<svg width="20" height="21" viewBox="0 0 20 21" fill="none" xmlns="http://www.w3.org/2000/svg">
<path d="M3.6214 18.0304C3.37801 18.0304 3.17518 17.9492 3.01292 17.787C2.85066 17.6247 2.76953 17.4219 2.76953 17.1785V13.8928C2.76953 13.7035 2.83038 13.5377 2.95207 13.3954C3.07377 13.2537 3.22927 13.1626 3.41857 13.122L6.21755 12.5541C6.40685 12.5271 6.59967 12.5438 6.79601 12.6044C6.9918 12.6655 7.15054 12.7569 7.27224 12.8786L9.17879 14.7852C10.2064 14.1632 11.1497 13.4263 12.0086 12.5744C12.867 11.7225 13.5801 10.8098 14.148 9.83626L12.1806 7.84858C12.0589 7.72688 11.981 7.58815 11.9469 7.43238C11.9134 7.27715 11.9102 7.10489 11.9372 6.91559L12.4646 4.07604C12.4916 3.88674 12.5795 3.73124 12.7282 3.60954C12.877 3.48785 13.046 3.427 13.2353 3.427H16.521C16.7644 3.427 16.9673 3.50813 17.1295 3.67039C17.2918 3.83265 17.3729 4.03548 17.3729 4.27887C17.3729 6.02316 16.984 7.72337 16.2063 9.3795C15.429 11.0362 14.4014 12.5033 13.1233 13.7808C11.8458 15.0589 10.379 16.0865 8.72284 16.8637C7.06617 17.6415 5.36569 18.0304 3.6214 18.0304ZM14.9187 8.29479C15.1486 7.76745 15.3244 7.23334 15.4461 6.69248C15.5678 6.15161 15.6624 5.60399 15.73 5.0496H13.9249L13.5801 6.95615L14.9187 8.29479ZM7.65761 15.5559L6.29868 14.197L4.39213 14.5824V16.3672C4.94652 16.3267 5.49766 16.2388 6.04556 16.1035C6.59291 15.9683 7.13026 15.7858 7.65761 15.5559V15.5559Z" fill="#797979"/>
</svg>
